<svg xmlns="http://www.w3.org/2000/svg" viewBox="0 0 631.4 203.7"><defs><style>.cls-1{fill:#302417;}.cls-2{fill:none;}</style></defs><g id="Layer_2" data-name="Layer 2"><g id="Layer_1-2" data-name="Layer 1"><path class="cls-1" d="M608.84,109.35v45.1H541.19V67.65H518.64v45.1h-45.1v45.1H315.71v-45.1H270.6V67.65H248.05v90.2H180.4v-45.1H157.85v45.1H90.21V90.2H135.3V67.65H22.55V90.2h45.1v67.65H0v23.3H270.6V134.92h22.55v46.23H496.09V135.3h22.55v45.85H631.39v-71.8Z"/><polygon class="cls-1" points="631.39 22.55 631.39 86.8 586.29 86.8 586.29 131.9 563.75 131.9 563.75 45.1 496.1 45.1 496.1 90.2 473.55 90.2 473.55 45.1 405.89 45.1 405.89 112.75 451 112.75 451 135.3 338.25 135.3 338.25 112.75 383.35 112.75 383.35 45.1 315.7 45.1 315.7 90.2 293.15 90.2 293.15 45.1 225.5 45.1 225.5 135.3 202.96 135.3 202.96 90.2 157.85 90.2 157.85 45.1 0.01 45.1 0.01 22.55 180.41 22.55 180.41 68.03 202.96 68.03 202.96 22.55 586.29 22.55 586.29 68.03 608.85 68.03 608.85 22.55 631.39 22.55"/><rect class="cls-1" x="428.44" y="67.65" width="22.55" height="22.55"/><rect class="cls-1" x="338.24" y="67.65" width="22.55" height="22.55"/><rect class="cls-1" x="112.75" y="112.75" width="22.55" height="22.55"/><rect class="cls-1" x="22.55" y="112.75" width="22.55" height="22.55"/><rect class="cls-2" y="181.15" width="631.39" height="22.55"/><rect class="cls-2" width="631.39" height="22.55"/></g></g></svg>
