<svg xmlns="http://www.w3.org/2000/svg" viewBox="0 0 145.17 145.17"><defs><style>.cls-1{fill:none;stroke:#38271a;stroke-miterlimit:10;stroke-width:4px;}</style></defs><g id="Layer_2" data-name="Layer 2"><g id="Layer_1-2" data-name="Layer 1"><path class="cls-1" d="M97.82,98.06A50.7,50.7,0,0,0,3.21,72.71,50.66,50.66,0,0,0,47.12,98.06,50.66,50.66,0,0,0,72.47,142,50.66,50.66,0,0,0,97.82,98.06Z"/><path class="cls-1" d="M141.73,72.71A50.7,50.7,0,1,0,72.47,142,50.66,50.66,0,0,0,97.82,98.06a50.63,50.63,0,0,0,43.91-25.35Z"/><path class="cls-1" d="M97.82,47.36A50.65,50.65,0,0,0,72.47,3.44,50.65,50.65,0,0,0,47.12,47.36,50.66,50.66,0,0,0,3.21,72.71,50.7,50.7,0,0,0,97.82,47.36Z"/><path class="cls-1" d="M142,22.43A51,51,0,0,0,122.75,3.21,50.71,50.71,0,0,1,97.4,40.81a50.63,50.63,0,0,1,.42,6.55,50.63,50.63,0,0,1,6.55.42A50.71,50.71,0,0,1,142,22.43Z"/><path class="cls-1" d="M141.73,72.71A50.63,50.63,0,0,0,97.82,47.36,50.65,50.65,0,0,0,72.47,3.44a50.71,50.71,0,1,0,69.26,69.27Z"/><path class="cls-1" d="M47.36,98.06A50.7,50.7,0,0,1,142,72.71,50.66,50.66,0,0,1,98.06,98.06,50.66,50.66,0,0,1,72.71,142,50.66,50.66,0,0,1,47.36,98.06Z"/><path class="cls-1" d="M3.45,72.71A50.7,50.7,0,1,1,72.71,142,50.66,50.66,0,0,1,47.36,98.06,50.63,50.63,0,0,1,3.45,72.71Z"/><path class="cls-1" d="M47.36,47.36A50.65,50.65,0,0,1,72.71,3.44,50.65,50.65,0,0,1,98.06,47.36,50.66,50.66,0,0,1,142,72.71,50.7,50.7,0,0,1,47.36,47.36Z"/><path class="cls-1" d="M3.21,22.43A51,51,0,0,1,22.43,3.21a50.71,50.71,0,0,0,25.35,37.6,50.63,50.63,0,0,0-.42,6.55,50.63,50.63,0,0,0-6.55.42A50.71,50.71,0,0,0,3.21,22.43Z"/><path class="cls-1" d="M3.45,72.71A50.63,50.63,0,0,1,47.36,47.36,50.65,50.65,0,0,1,72.71,3.44,50.71,50.71,0,1,1,3.45,72.71Z"/><path class="cls-1" d="M97.82,47.12A50.7,50.7,0,0,1,3.21,72.47,50.66,50.66,0,0,1,47.12,47.12,50.66,50.66,0,0,1,72.47,3.21,50.66,50.66,0,0,1,97.82,47.12Z"/><path class="cls-1" d="M141.73,72.47A50.7,50.7,0,1,1,72.47,3.21,50.66,50.66,0,0,1,97.82,47.12a50.63,50.63,0,0,1,43.91,25.35Z"/><path class="cls-1" d="M97.82,97.82a50.65,50.65,0,0,1-25.35,43.92A50.65,50.65,0,0,1,47.12,97.82,50.66,50.66,0,0,1,3.21,72.47,50.7,50.7,0,0,1,97.82,97.82Z"/><path class="cls-1" d="M142,122.75A51,51,0,0,1,122.75,142a50.71,50.71,0,0,0-25.35-37.6,50.63,50.63,0,0,0,.42-6.55,50.63,50.63,0,0,0,6.55-.42A50.71,50.71,0,0,0,142,122.75Z"/><path class="cls-1" d="M141.73,72.47A50.63,50.63,0,0,1,97.82,97.82a50.65,50.65,0,0,1-25.35,43.92,50.71,50.71,0,1,1,69.26-69.27Z"/><path class="cls-1" d="M47.36,47.12A50.7,50.7,0,0,0,142,72.47,50.66,50.66,0,0,0,98.06,47.12,50.66,50.66,0,0,0,72.71,3.21,50.66,50.66,0,0,0,47.36,47.12Z"/><path class="cls-1" d="M3.45,72.47A50.7,50.7,0,1,0,72.71,3.21,50.66,50.66,0,0,0,47.36,47.12,50.63,50.63,0,0,0,3.45,72.47Z"/><path class="cls-1" d="M47.36,97.82a50.65,50.65,0,0,0,25.35,43.92A50.65,50.65,0,0,0,98.06,97.82,50.66,50.66,0,0,0,142,72.47,50.7,50.7,0,0,0,47.36,97.82Z"/><path class="cls-1" d="M3.21,122.75A51,51,0,0,0,22.43,142a50.71,50.71,0,0,1,25.35-37.6,50.63,50.63,0,0,1-.42-6.55,50.63,50.63,0,0,1-6.55-.42A50.71,50.71,0,0,1,3.21,122.75Z"/><path class="cls-1" d="M3.45,72.47A50.63,50.63,0,0,0,47.36,97.82a50.65,50.65,0,0,0,25.35,43.92A50.71,50.71,0,1,0,3.45,72.47Z"/></g></g></svg>