<svg xmlns="http://www.w3.org/2000/svg" viewBox="0 0 631.38 203.69"><defs><style>.cls-1{fill:#fff;}</style></defs><g id="Layer_2" data-name="Layer 2"><g id="Layer_1-2" data-name="Layer 1"><path class="cls-1" d="M586.29,86.8v45.1H563.74V45.1H496.09V90.2H473.54V45.1H405.89v67.65H451V135.3H338.24V112.75h45.1V45.1H315.69V90.2H293.14V45.1H225.49v90.2H202.94V90.2H157.85V45.1H0V157.85H67.65V90.2H22.55V67.65H135.3V90.2H90.2v67.65h67.65v-45.1H180.4v45.1H248V67.65h22.55v45.1h45.1v45.1H473.54v-45.1h45.1V67.65h22.55v86.8h67.64v-45.1h22.55V86.8H586.29Zm-248-19.15h22.55V90.2H338.24ZM45.1,112.75V135.3H22.55V112.75Zm90.2,22.55H112.75V112.75H135.3ZM451,90.2H428.44V67.65H451Z"/><polygon class="cls-1" points="518.64 135.3 496.09 135.3 496.09 181.15 0 181.15 0 203.69 631.38 203.69 631.38 181.15 518.64 181.15 518.64 135.3"/><rect class="cls-1" x="270.59" y="134.92" width="22.55" height="45.85"/><polygon class="cls-1" points="0 0 0 22.55 180.4 22.55 180.4 68.02 202.94 68.02 202.94 22.55 586.29 22.55 586.29 68.02 608.84 68.02 608.84 22.55 631.38 22.55 631.38 0 0 0"/></g></g></svg>