<svg xmlns="http://www.w3.org/2000/svg" viewBox="0 0 273.66 202.13"><defs><style>.cls-1{fill:#fbb040;}.cls-2{fill:#13100f;}.cls-3{fill:#f37443;}</style></defs><g id="Layer_2" data-name="Layer 2"><g id="Layer_1-2" data-name="Layer 1"><circle class="cls-1" cx="97.3" cy="95.41" r="95.41"/><path class="cls-2" d="M5.61,144.12l.86,44.37L0,192.65v9.14l189.26.34v-74.8s-77.78,36.6-108.78,27.81S59.26,144.79,5.61,144.12Z"/><path class="cls-3" d="M240.73,10c-16.19-8.53-15.44-1.65-15.44-1.65-10.54-5.27-7.15,4.15-7.15,4.15-.38,1.5-7.53,8.28-7.53,12.8C194.79,66.73,168,50.94,168,50.93c-5.49-13.75-22.09-24.66-43.33-28.58C86.16-8.84,69.47,28.87,69.47,28.87h0a62.49,62.49,0,0,0-5.5,3S42.26,40,30.21,54.68c-1.88,9.41-12,45.94-16.57,66.66,0,4.52-10.17,17.7-10.17,17.7S7.24,179,1.59,192.89c0,2,6.07,2.49,11.46,1.45a2.25,2.25,0,0,0,1.15-3.78c-3.74-3.9-8.09-14.11-.56-40.22A94,94,0,0,1,20,132.26a49.18,49.18,0,0,0,6.35-13.58S33.77,115.6,41,97.87h0a62.51,62.51,0,0,1,1.54,50.58c1.19,2.17,28.33,44.82,28.33,44.82s8.66,4.33,16.2,1.6A9.31,9.31,0,0,0,78.41,188s-34.19-25.46-16.19-70.81c1.75-2.26,8.82-12.8,7.61-24.1h0c10.44,5,23.38,7.91,37.4,7.91a96.22,96.22,0,0,0,17.42-1.57h0s-8.57,38.1-8.57,43c0,0,4.89,15.85,0,40.12,0,3.56-.38,13.36,2.26,16s21.84,0,21.84,0-.38-4.89-8.66-6c-3.4-1.89-7.16-16.6-1.51-43,1-2.24-.53-34.4,8.51-50,.12-.21.25-.42.38-.63,0,0-.23,8.43,10.32,20.86s13.56,21.45,13.56,21.45-5.28,16.21-10.17,20-8.52,15.44-8.52,15.44H138.9s.15,10.54,13.71,15.82c0,0-1.89-25.24,22.22-44.07a87.73,87.73,0,0,0,3.76-9s-22.23-33.4-23-42.93c0,0,8.36-9.12,10-11.25,1.56.39,13.65,3.34,22.8,3.34,9.79,0,29-18.84,29-18.84l2.66,3.4c12.45-9.79,13.54-26.74,13.54-26.74a45.26,45.26,0,0,0,13.56-8.66c9.79-13.94,24.26-7.92,24.26-7.92C277.27,5.73,244.12,10,240.73,10ZM64,31.85,63.7,32A1.76,1.76,0,0,1,64,31.85Z"/><path class="cls-2" d="M125.66,201.29c-3.87,0-7.2-.41-8.43-1.64-2.63-2.62-2.78-9.58-2.73-15.89,0-.46,0-.86,0-1.21l0-.31c4.75-23.54.09-39.2,0-39.35l-.07-.23v-.23c0-4.36,6.24-32.68,8.1-41.06a99,99,0,0,1-15.38,1.2,90.2,90.2,0,0,1-35.69-7c0,11.2-6.83,20.89-7.94,22.39-7.19,18.24-6.75,35.32,1.29,50.78A58.33,58.33,0,0,0,79,186.47a10.81,10.81,0,0,1,9.59,8.05l.32,1.35-1.31.47c-8.07,2.93-17-1.48-17.43-1.67l-.39-.19-.23-.37c-1.11-1.74-27.18-42.72-28.38-44.9l-.36-.66.28-.69a61.7,61.7,0,0,0-.05-46.14c-5.72,12.6-11.35,16.85-13.32,18a51.18,51.18,0,0,1-6.34,13.32,93.78,93.78,0,0,0-6.23,17.63l0,.08c-7.43,25.75-3.07,35.31.19,38.71a3.88,3.88,0,0,1,.9,3.85,3.73,3.73,0,0,1-2.88,2.55c-4.51.87-10.19.83-12.3-.92a2.68,2.68,0,0,1-1-2.07v-.3l.11-.29C5.57,178.88,2,139.58,1.91,139.18l-.06-.61.38-.49c3.8-4.93,9.84-13.84,9.84-16.74l0-.34c2.5-11.48,6.66-27.51,10.33-41.65,2.9-11.17,5.4-20.81,6.23-25l.08-.39.25-.3C40.74,39.37,61.23,31.23,63.28,30.44c1.58-1,3.26-1.88,5-2.74,1.36-2.79,8.14-15.27,21.6-18.51,10.66-2.57,22.58,1.36,35.44,11.69,21.32,4,38,15.07,43.89,28.94a24.11,24.11,0,0,0,18.18,1.24c8.91-3.14,16.2-11.91,21.65-26.07.18-3.54,3.44-7.61,5.84-10.61.56-.7,1.23-1.53,1.56-2-.38-1.4-1-4.52.94-6.2,1.45-1.29,3.72-1.29,6.9,0A3.83,3.83,0,0,1,225.41,5c2.66-1.81,7.79-.7,15.69,3.41l1-.06c5.33-.33,21.52-1.33,28.4,6.89,3.1,3.71,3.92,8.73,2.41,14.93L272.49,32l-1.69-.7c-.54-.23-13.46-5.33-22.38,7.37l-.1.15-.14.12a49.46,49.46,0,0,1-13.13,8.59c-.45,3.9-2.81,18-14,26.87l-1.24,1-2.55-3.27c-4.54,4.26-19.92,18.08-28.83,18.08h0c-8.22,0-18.8-2.35-22.21-3.16-2.13,2.58-7.29,8.25-8.92,10,1.36,8.2,16.68,32.59,22.64,41.54l.43.65-.26.74a86.12,86.12,0,0,1-3.87,9.27l-.16.28-.25.2c-23.17,18.1-21.64,42.47-21.62,42.71l.18,2.48L152,194c-14.38-5.59-14.7-16.79-14.71-17.26l0-1.59H143c1.07-3.09,4.35-11.77,8.7-15.12,3.56-2.73,7.88-14,9.47-18.7-.77-2-4.24-10-13.1-20.47-6.11-7.2-8.73-13.14-9.85-17-5.08,11.87-5.78,30.23-6.14,39.5-.16,4.26-.23,5.85-.51,6.68-5.73,26.84-1.41,39.32.57,41,9.08,1.38,9.63,7.15,9.65,7.4l.11,1.47-1.46.2A116.73,116.73,0,0,1,125.66,201.29Zm-8-18.58v1.07c0,3.21-.11,11.74,1.8,13.65,1.32,1.13,10.27.82,18.54-.18-.8-1.14-2.62-2.63-6.68-3.18l-.29,0-.25-.14c-4.4-2.44-8-17.9-2.28-44.65l.09-.29c.13-.47.23-3.15.33-5.75.4-10.47,1.23-32.27,8.26-44.38.13-.23.27-.45.41-.67l3.05-5L140.47,99c0,.07,0,8.09,9.94,19.81,10.62,12.51,13.73,21.58,13.85,22l.16.49-.15.49c-.56,1.71-5.57,16.79-10.71,20.74-3.69,2.84-7,11.55-8,14.66l-.34,1.1h-4.55c.58,2.68,2.7,8.15,10.32,11.85.18-7,2.54-26.87,22.59-42.69a80.37,80.37,0,0,0,3.25-7.8c-3.23-4.9-22.08-33.85-22.79-43l-.05-.68.46-.5c.08-.09,8.33-9.09,9.86-11.13l.63-.84,1,.26C167.31,84,179.4,87,188.39,87c7.5,0,22.68-13.28,27.9-18.39l1.25-1.23,2.74,3.5C230.89,61.54,232,46.45,232,46.29l.06-1,1-.35A44.16,44.16,0,0,0,246,36.68c8.31-11.67,19.88-10,24.27-8.88.76-4.41.06-7.95-2.11-10.54-5.86-7-20.87-6.08-25.8-5.77-.73,0-1.28.07-1.59.07h-.38l-.35-.18c-9.77-5.14-12.38-4.06-12.8-3.8a.74.74,0,0,0-.35.65l.32,2.86-2.58-1.34c-4.14-2.06-5.08-1.3-5.12-1.26-.47.41-.31,2.21.14,3.48l.16.44-.11.47c-.2.78-.86,1.63-2.32,3.46-1.93,2.41-5.17,6.45-5.17,9v.29l-.1.27C206.26,41.08,198.3,50.55,188.41,54a27,27,0,0,1-21.22-1.74l-.46-.28-.2-.49c-5.28-13.21-21.43-23.8-42.16-27.63l-.39-.07-.31-.25c-12.18-9.86-23.29-13.68-33-11.34C79.57,14.89,73.31,25,71.48,28.36l2.13-.53-2.69,1.63,0,0-.23.53-.52.25c-1.79.86-3.51,1.79-5.12,2.76l-.5.31,0,0h0l-.28-.41.12.46.14,0c-1.16.44-21.3,8.23-32.82,22-.92,4.44-3.37,13.88-6.2,24.77-3.64,14-7.78,30-10.27,41.39-.21,4.62-7.78,14.91-10.11,18,.46,5.21,3.25,39.36-1.76,53.22,1.17.55,5,.93,9.43.08a.6.6,0,0,0,.48-.42.71.71,0,0,0-.18-.73c-4.54-4.75-8.39-15.84-.94-41.71a94.65,94.65,0,0,1,6.52-18.38l.11-.2a47.8,47.8,0,0,0,6.13-13.08l.19-.74.72-.3c.05,0,7-3.26,13.77-20l1.23-3,1.59,2.87c.53,1,12.77,23.67,1.91,51.21C47.05,152.84,63.11,178.14,72,192c1.53.68,7.48,3.06,13.05,1.8a7.59,7.59,0,0,0-6.68-4.28l-.47,0-.38-.29a59.51,59.51,0,0,1-15.3-18.92c-5.9-11.27-10.93-29.74-1.42-53.71l.09-.21.13-.18c.35-.45,8.55-11.2,7.29-23L68,90.47l2.53,1.21c10.66,5.07,23.36,7.75,36.72,7.75a95.1,95.1,0,0,0,17.14-1.54l1.85-.35,0,2.23c-2.33,10.38-8.34,37.86-8.53,42.45C118.28,144.42,122.24,159.77,117.64,182.71Z"/><path class="cls-2" d="M140.6,93.49S153.29,80.94,165,83.58l.63,1.65-10,11.25,2.66,8.09-6.66,18.22-7.19-9.64-4.05-7.92L138.9,99Z"/><rect class="cls-2" x="81.65" y="85.54" width="1.57" height="11.01" transform="translate(-40.38 91.3) rotate(-47.96)"/><rect class="cls-2" x="77.26" y="85.34" width="1.57" height="11.01" transform="translate(-41.69 87.99) rotate(-47.97)"/><path class="cls-2" d="M221.74,10.19s3.58,4.66,3.81,6.59c0,0,2.26-4.71,5.37-5,0-.28-3.3-4.19-4.19-1.6a23.24,23.24,0,0,1-1.08,3.06Z"/><path class="cls-2" d="M220,53.3c0-.22-1.33,11.07-2.61,14.63l2.9,3.88,3.86-3.62,3.48-6.12s-5.25,5.68-7.67,5.55C219,67.53,220,53.51,220,53.3Z"/><path class="cls-2" d="M219.56,64.14s6.09-4.29,7-5.42c0,0-6.89,6.5-7,8.2S219.56,64.14,219.56,64.14Z"/><path class="cls-2" d="M218.62,62.56l-1,1.3-2.45-.65s1.41,2.76,1.22,3.24a7.33,7.33,0,0,1-.7,1.17s-2.08-.19-2.69-.8,2,1.41,1.74,1.7a13.42,13.42,0,0,0-.8,1.46l-1,.75-1,1.08s-2.92.9-4.14,0c0,0,1,2.36.61,2.92A3.81,3.81,0,0,1,206.49,76c-.24,0-4.24-.84-4.43-1.36,0,0,2.17,2.21.71,2.92a4.44,4.44,0,0,1-4.62-1.32S200.27,78,199.8,79a4.14,4.14,0,0,1-2.26,1.5c-.09,0-1.08-.18-1.08-.18l-2-1.89,1.37,2.07-.57.85-2-.85s-.61,0-.51.1a8.91,8.91,0,0,0,1,.75l.8.85-.1.7-.7.35-1.37-.44s-.28-.52-.38-.66l-.42-.66s-.47-.7-.52-.42a7.81,7.81,0,0,0,0,1l0,.47-.26.19-.89-1-.24,0a2.24,2.24,0,0,0-.42.57l-.29.7-.61,0-1.6-.33-1.41.58h-.24l-.89.46h-1.46l-.38.47s.24.75,0,.94.14.42,0,.61a2.61,2.61,0,0,0-.08,1l-.67-1.27a.32.32,0,0,1,0,.42,5.37,5.37,0,0,0-.28,1.55l1.6,1.13,9.58-.79,8.21-4s7.88-6.21,8.12-6.41l7.94-6.49L218.62,65Z"/><path class="cls-2" d="M222.56,61.41l.18-.42.65-1.47L226,58.11l1.32-1.74.94-.66.9-1.79.84-1.13-.65,1.7a5.74,5.74,0,0,0-.48.94,8.79,8.79,0,0,1-1.08,1.67c-.09.07-.61.59-1,.87a10.88,10.88,0,0,1-1.22,1c-.66.42-1.46.85-1.74,1A13.24,13.24,0,0,0,222.56,61.41Z"/><path class="cls-2" d="M221,60.28l1.47-2.07.44-.66a4.76,4.76,0,0,1,1.62-1.23,22.68,22.68,0,0,0,2.59-1.41l-3.43,2.68-1.65,1.79Z"/><path class="cls-2" d="M230,49.54l-2.4,2.59-1.33.85a17.21,17.21,0,0,0-2.2,1.13,7.43,7.43,0,0,1-1.06.8l-.09.94,1.34-.94,1.41-1,1.46-.62h1l.71-.86s.7-1,.8-1.2S230,49.54,230,49.54Z"/><path class="cls-2" d="M242.8,39.71a22.87,22.87,0,0,0,.74-2.41.71.71,0,0,0-.74.52,4.63,4.63,0,0,1-.72,1.6c-.19.19-1.65.85-1.7,1s-.75,1.32-.75,1.32l-2,1.51s1-.9.89-1.27-.47-1.28,0-1.7a22.51,22.51,0,0,0,1.79-1.55c.1-.19.47-1.09.71-1.16s.8-.77,1-1.1a2,2,0,0,0,.23-.94s-.42-.85-.61-.52-.57.52-1.11.94-1,.42-1.24.75a3.18,3.18,0,0,1-1,.87c-.33.12.14-.49.52-1.1s1.17-1,.09-.33-1.79.75-2,1-.05-.23-.38.4-.09.5-.75,1.2a9.53,9.53,0,0,1-1.32,1.18c-.24.19.23.28-.85.85s-1.41.7-1.41.7a.4.4,0,0,0-.71.1c-.28.56-.51.66-.42.85a6.54,6.54,0,0,1,.24.8s.33.47,0,.75-1.89,1.27-1.89,1.27a2,2,0,0,0-1,.38,4.7,4.7,0,0,1-.8.56l-.8.61h-1.31s.14-.18-.71.38a4.57,4.57,0,0,1-1.23.66l-.54.66h1.06a5.22,5.22,0,0,1,.47-.24,3.88,3.88,0,0,1,.9-.47c.52-.14,1.13,0,1.5-.24s1.28-.65,1.7-.89,1-.61,1-.61,1.65-.52.33.24a10.06,10.06,0,0,1-1.64.84,7,7,0,0,0,1.17.1l.85-.24c.33-.09.57-.28.71-.28a4.87,4.87,0,0,1,.84.38l.33,0a8.05,8.05,0,0,0,.8-.37c.24-.14,5-2.54,5-2.54l3.34-2.06C241.56,42.09,242.8,39.71,242.8,39.71Z"/><path class="cls-2" d="M250,33.19l-1.63.63s-1.55.42-1.76.42-3-.52-3-.52l-1-.53s-3.17.56-3.39.53a6.07,6.07,0,0,0-2.68.52c-.42.43-2.47,1.28-2.61,1.56s-1.41.92-1.7,1.27-.49.78-.84.56-.78-.77-1.35-.91a8.1,8.1,0,0,1-1.48-.64,7.2,7.2,0,0,1-2-1.16c-.26-.32-.75-1.45-1.32-1.73a2.39,2.39,0,0,1-1.13-1.06c-.49-.71-1.06-1.56-1.06-1.56s.24.07-.09-.92a11.43,11.43,0,0,1-.44-2.42c0-.33.18-1.25,0-1.6s-.7-1.13-.61-1.41a4.29,4.29,0,0,0,0-1l-.14-.88v-2l-.48-1.67.93-.8,1.2-.71a1.29,1.29,0,0,1,.7.29c.36.28.92.85.29,1.13s-.85,0-.92.3a3.49,3.49,0,0,1-.52.9c-.12.21-.57.49-.38.7s.43,0,.38.68.09,2.71.09,2.71.92.31,1.06.83a4.15,4.15,0,0,0,.57,1.51c.42.7.42.37.77,1.1a11.46,11.46,0,0,0,1,1.72c.23.28,1.21.7,1.57,1.13s-.85-.43.7.85a14,14,0,0,0,2.62,1.76A3.79,3.79,0,0,0,230,31a3.35,3.35,0,0,1-1.2-1c-.21-.28-.84-1.13-.21-1s1.2.21,1.41.63.24-.18.5.92.7,1.06,1,1.42l.28.35,1.13.56c-.78-1-1.06-1.27-1.06-1.27l.57-.21h.42l.43.28.91.57,1,.7L235,31.91l-.21-.77s.14-.64.77-.21,1.34.91,1.34.91a2.65,2.65,0,0,1,.64.5,2,2,0,0,0,.71.42l.7.07h1.49a6.31,6.31,0,0,0,1.05-.21,22.32,22.32,0,0,1,2.41-.21,3.16,3.16,0,0,0,.84,0,14.08,14.08,0,0,0,1.34-.57c.36-.14.8-.35.8-.35a8,8,0,0,0,1.39-.35c.22-.14.57-.28.85-.43s.07-.49.85-.7,1.55-.5,1.55-.5-.14-.21.64-.35a13.77,13.77,0,0,1,2.33-.49c.42.07.35-.43,1.2.14s1.79.75,1.47.87.72.19-1.26,1.1-1.15.42-2.68,1.21-.87.23-1.53.78-.38,1.38-1,.9Z"/><path class="cls-2" d="M256.36,28.81l-1.06-1.43s-3.39-1-3.53-.94.71,0-.14,0a13.7,13.7,0,0,1-2.43,0,2.69,2.69,0,0,0-1.06,0c-.53.07-.67.53-1,.57l-1,.07s1.84-.5.74-.69-2.15-.34-2.51-.41a3,3,0,0,1-1.06-.46c-.07-.1-.84-.77-.21-.74a7.46,7.46,0,0,0,1.59,0,10,10,0,0,0,1.34-.56c.18-.11.82-.81.53-.36s-.39.49-.31.76-1.13,0,.31.47a6.08,6.08,0,0,0,2.09.43,3.44,3.44,0,0,1,1-.21c.57,0,1.1-.22,1.31-.22s.42-.36.85,0a2,2,0,0,0,1.16.47,3.24,3.24,0,0,0,1,0c.21-.11.63-.37.77-.47s.75.07,1,0,.46-.25.85,0,.49.12,1.13.47,1.8.56,2.25,1.2a3.19,3.19,0,0,0,1.1,1c.14.07.88.28.81.39s0,.3-.32.52a5.13,5.13,0,0,1-2.11.71,19.2,19.2,0,0,1-1.95-.28,1.42,1.42,0,0,1-.42,0A2.21,2.21,0,0,1,256.36,28.81Z"/><path class="cls-2" d="M271.12,23.71c-.25,0-.6.54-.77.61a2.76,2.76,0,0,1-2.05,0,6.08,6.08,0,0,0-2.16-.77c-1.27-.29-1.87-.36-2.82-.64s-1.38-.53-1.87-.6-1.52-.46-1.73-.49-.53-.11-.46,0a4.46,4.46,0,0,1,.39.63,1.41,1.41,0,0,0,1,.92,14.13,14.13,0,0,0,1.48.34,3,3,0,0,1,2.05,0,4.42,4.42,0,0,0,1.7.51,12.13,12.13,0,0,0,1.3.31c.32,0,.57.11,1.31.18s.71-.25,1.76,0,1.59.41,1.52,0A2.88,2.88,0,0,0,271.12,23.71Z"/><path class="cls-2" d="M234.12,13.38h1.13a5.25,5.25,0,0,1,1.38.17c.42.18.17-.07.56.36s0,.32.39.42,1.48.25,1.48.25.11.21.64,0a1.88,1.88,0,0,0,.78-.55l.17-.65a6.48,6.48,0,0,1,2.15,0,6.5,6.5,0,0,1,.74.42c.36.28.57-.74.61.57s.74,1.16,0,1.55-.78.66-1.35.86a7.67,7.67,0,0,1-1.3.3,5.25,5.25,0,0,0-1.1.57v.49s0,.82-.14.85-1.09.28-1.2.32-.46.18-.7.25a1.73,1.73,0,0,1-1,.17c-.49-.07-.84.32-1.27,0s-1-.51-1.16-.83-.29-.74.14-.74a2,2,0,0,1,.74.07c.21.07,1.62.28,1.62.28l1.35-.31-.78-.43c-.25-.14-.35-.55-.74-.71s-.74-.13-1-.5a6.86,6.86,0,0,0-.88-1.26c-.56-.6-.74-.74-.81-.85s-.32-.81-.32-.81Z"/><path class="cls-2" d="M269.71,17.08s-.19.15-.33,0-.24-.16-.8-.3a10.31,10.31,0,0,1-1.51-.61s.19.19-.37,0a3.35,3.35,0,0,0-1.18-.33c-.24.05-.61.22-.85,0s-.14-.37-.52-.46a8.78,8.78,0,0,1-.94-.43c-.47-.18-1.17-.47-1.08-.61s.19.05.61,0,.1.1.85.19a4.32,4.32,0,0,1,1.27.19l.66.33c.38.19.24.28.66.28s1.18-.33,1-.38a2.33,2.33,0,0,0-.57-.14l-1.08-.23c-.19-.05.07-.23-.47-.1s-.61-.2-.8-.19h-.57a.3.3,0,0,1,.1-.47c.33-.18.61-.42,1-.33s.33-.32,1.27,0a9.44,9.44,0,0,1,2.3,1c.15.19.48.76.71,1.09s.66.52.66,1,.24.5.24.5"/><path class="cls-2" d="M221.74,19a13.9,13.9,0,0,0-1.55-1.18,1.3,1.3,0,0,0-.29-.42,1.23,1.23,0,0,0-1.36,0c-.47.42-.85.89-1.16,1.13s-.73.05-1.2.47-.61.38-.94.83-.66.2-.42,1a4.19,4.19,0,0,0,.47,1.13c.23.47.38.37.56.89s.33.86.33.86.33.08,0,.27-.52.33-.75.52a2.17,2.17,0,0,1-.74.38,5.08,5.08,0,0,1-1.19,0s.42,0,0,.47a4.25,4.25,0,0,1-.71.7,1.21,1.21,0,0,0-.33.49,11.14,11.14,0,0,0,1.13-.49l1-.51c.19-.1.19-.57.89-.52s2.08,0,2.08,0l.89-.09,1-.71s.8-.75,1-.94,1.18-1,1.18-1,.82-.85.76-1-.24-2-.24-2Z"/><path class="cls-2" d="M213.27,27.75s-.57-.1-.76.33-.8.56-1.36,1-1.32,1.23-1.32,1.23-.33.94.23.61.66-.52,1-.75a4.5,4.5,0,0,0,1.13-.83c.42-.44,1-1,1-1.29Z"/><path class="cls-2" d="M209.73,31.56l1,.33.78-.16s-.1.26-.88.44-1.78.47-1.78.47a5.34,5.34,0,0,1,.89,0,3.38,3.38,0,0,0,1.42,0c.37-.14.66-.23.66-.23s.61,0,0,.31a2.32,2.32,0,0,1-1.35.44,11.52,11.52,0,0,1-1.34,0c-.14,0-1,.24-1,.38s.09.61.37.52.8-.47,1.27-.19a5.66,5.66,0,0,1,1,.8,1.06,1.06,0,0,0,.47.25s.43.13.52-.39-.09-.57.1-.8a5.72,5.72,0,0,1,.7-.66s.05-.38.24-.19.28,0,.52.37.47.38.37,1,.14.56-.37,1-.76.66-.76.66h-1s-.21.38,0,.57a.24.24,0,0,1,0,.37.78.78,0,0,1,0,.24c0,.14-.63.23-.63.23h-.62c-.52-.37-.42-.51-.75-.65s-.47-.38-.8-.43a1.54,1.54,0,0,0-.85.05c-.19.09-.89.47-.89.47s-.62.09,0,.28a7.36,7.36,0,0,1,.8.28,5.68,5.68,0,0,0,.94,0c.23,0,.51.21,1,.39s.8.23,1.13.37a1.41,1.41,0,0,0,.8,0s.24.5.29.06.09-.63.23-.72.66-.47.8-.38.29.67.29.67l1.22-.34s-.47-.52,0-.23a16,16,0,0,1,1.51,1c.14.14.42.47.42.47s.28.09,0,.47.05.94-.57.51.29-.42-.61-.42-1,.24-1,.24-.33.11-.1.34,1.18,1.45,1.18,1.45.33.44.09.55-.18.36-.66,0-1.27-1.36-1.45-1.36-1.46-.61-.76,0,1.08,1.06,1.08,1.36a1.76,1.76,0,0,1-.09,1c-.19.42.42,1.12-.19.42a8.46,8.46,0,0,1-1.08-1.38c-.19-.37.09-.84-.62-1.07l-1-.33a2.3,2.3,0,0,1-.9-.28c-.56-.29-.37-.33-.89-.38s-.89.52-1.18.28.29-.23-.61-.85-.61-.56-.89-.61-.62.1-.76-.52a4.71,4.71,0,0,1,.32-2.14A32.47,32.47,0,0,0,208,32.88c.1-.42.19-1,.19-1Z"/><path class="cls-2" d="M204.74,39a7.62,7.62,0,0,1,1.93.33l.38.24s-.47-.05,0,.33a4.39,4.39,0,0,1,.75.75h-1.88s-.4-.38-.55,0-.2.42-.63.52a3.47,3.47,0,0,1-1.27-.19s-.56-.24-.51.21-.05.68.33.92a11.84,11.84,0,0,0,1.69.62s-.33-.53.4-.48.45-.14,1.15,0a4.1,4.1,0,0,1,1.28.43c.23.18.56.23.84.51s.19,0,.57.61.56.75.51.9a2.24,2.24,0,0,1-.33.47s-.23-.19-.65-.57-.52-1-.66-.47-.52,1.18-.9,1-1-.71-1.5-.8-.43-.38-.52-.1-.43.42.56.92a6.49,6.49,0,0,0,1.56.64,5,5,0,0,0,1.93,0s.37-.55.33.1-.57.88.18.79,1.46-.52,1.77-.38.54-.1,1,.4.57.12,1.37,1a16,16,0,0,0,1.5,1.5c.57.52.52.14.85.85a9.33,9.33,0,0,1,.61,1.46,3.32,3.32,0,0,1,.29,1.22.23.23,0,0,1-.29.24,14.39,14.39,0,0,1-2.21-1.51c-.19-.19-.28-.75-1.08-1.18l-2.05-1.08a2.93,2.93,0,0,0-.78-.52l-2.3-1.18c-.19-.09-.5.21-.44.29a7.93,7.93,0,0,0,1.19,1.27,9.67,9.67,0,0,0,1.46,1.22,17,17,0,0,0,1.88,1.51,1.85,1.85,0,0,0,.94.19s.29-.14.43.05.37.14.37.35-1,.86-1,.86.32.6-.62,0-2.16-1.45-2.16-1.45.47.38-.45-.56-.73-.57-1.11-1.27-.37-.8-.56-1.09a15.62,15.62,0,0,0-1.88-1.37H206s-.21-.52-.6,0-.72,0-.39.53.09.42,1,1a16.5,16.5,0,0,0,1.46.9c.7.42.85,0,1.08.61a2.51,2.51,0,0,1,.19,1.08s-1-.05-1.13-.09a2.81,2.81,0,0,0-.57,0s-.23.14-.84-.47-.73-.57-.79-.8a6.54,6.54,0,0,0-.3-.76s.05.05-.33,0a2.89,2.89,0,0,0-.65,0s-1.33-.14-1.14-.37.43-.19.19-.24a1.51,1.51,0,0,0-1.13.61,15,15,0,0,1-.84,1.32l-.66.24s-.1-.61-.24,0-.33.89-.28,1.08a1.57,1.57,0,0,1,0,.52,3,3,0,0,0-1,.6,1.13,1.13,0,0,1-.89.27,1.12,1.12,0,0,1-.47.64c-.38.23-.24.42-.8.23s-1.18,0-.85-.42A8.31,8.31,0,0,1,197,52.79c.19-.09.38-.18,0-.35a1.88,1.88,0,0,0-1,0l-.86-.23-1-.41s-1,.1-1.13-.37-.14,0-.09-.47a19.39,19.39,0,0,1,1.27-2.78s3.67-3.39,3.86-3.53,3.39-3.39,3.62-3.53S204.74,39,204.74,39Z"/><path class="cls-2" d="M195.94,54s-1.18.39-1.6.5a10.43,10.43,0,0,1-1.88,0c-.47.44-.8.72-.8.72s.23-.23-.47.28-.57.38-1.09.8-.33.19-1,.52-.38,0-1.23.26-.61,0-1.6.21a2.92,2.92,0,0,1-1.74,0c0-.09-.24-.42.47-.56s1.55-.24,1.41-.33-1.92-.57-1.92-.57-.39-.41-.71-.13-2.88-2-.66.13a11.8,11.8,0,0,0,3,2.45,6,6,0,0,0,1,.42c.38.15,1.42.57,1.46.8s-.37,1.13-.94,1.13a4,4,0,0,1-2.35-.94,12.11,12.11,0,0,1-1.74-2l-.76-.66a15,15,0,0,1-1.5-1.86c-.14-.19,0-.33-.33-.33a6.23,6.23,0,0,0-1.84.33c-.61.24,0,.47-.94.28a21.65,21.65,0,0,1-2.49-.61,6.68,6.68,0,0,0-1.84-.39c.05.11-.47-.31.75.72s2.12,1.46,2.17,1.65.28,1,0,1.13-.33.42-1.27-.05-2.12-1.22-2.12-1.22a2.74,2.74,0,0,0-.85-.9c-.66-.47-1.36-.94-1.36-.94s-.33-.75-.71-.89-1-1.13-1.22-1.23-.71-.42.89-.33,3.39.43,4.9.57,5.08-.43,5.6-.24,2-.14,2.35,0a17.77,17.77,0,0,0,2.73,0c.38,0,2.12-.34,2.12-.34l.91-.24,1.37-.59a13.55,13.55,0,0,1,1.91-.33c.88-.14,3.39-.62,3.39-.62s1.27-.23,1.7.33a5.72,5.72,0,0,1,1,1.7c0,.28-2.09,1.62-2.09,1.62Z"/><path class="cls-2" d="M172.78,83.22s-.66-1.85-.85-2.42-.75-1.79-.75-1.79l-1.13-1.6a12.2,12.2,0,0,0-1.88,0,5.81,5.81,0,0,1-1.51,0c-.57-.33-1.3-.9-1.07-1.37s-.63-5.74-1.19-5.55-.66.47-.47,1.36,1.88,3.63.94,4.47,0,.47-.94.85-1,0-1.65.1-.14-.38-.61.09l-.47.47v.38a.41.41,0,0,0-.57.28c-.18.47-.28.38,0,1.22s.38.29.66,1.7-.56.78.48,1.85.5,1.26,2.16,1.63,4,.28,4.9,1.13a6.67,6.67,0,0,0,2.73,1.18l1.69-.38V84.29Z"/><path class="cls-2" d="M142.74,92.29a20.22,20.22,0,0,0-2.07-1.88l-.28-.1a9.34,9.34,0,0,1-1.49-.37c-.39-.19-1.24-.38-1.52-.57a6.29,6.29,0,0,0-1.7-1.22c-1-.47-1.22-.28-1.88-1s-.85-1.42-1.69-2A5,5,0,0,1,130,83.22a13,13,0,0,1-1.88-4.42,5.79,5.79,0,0,1,0-2s.1-.75.94,0a36.89,36.89,0,0,1,2.83,3.39,19,19,0,0,0,1.5,1.51,3,3,0,0,0,.57,1.57,13.85,13.85,0,0,0,2,1.14l-.56-3.09s-.2-.94.56,0,1.5,2,1.5,2,.1-.6.57,0,1.36.83,1.53,1.14.92,0,.92,0h.75s.19-1-.66-1.14-1.08-.72-1-.72,1.2-.28,1.2-.28a6.09,6.09,0,0,0-1.2-1.13,11.74,11.74,0,0,1-1.44-1.23s.69-.56.77-.37,1.87.75,2.53,1.22.84.38,1.31.85.48.18,1.32,1.13.94,1.73,1.51,1.67,1.51-.78,1,0,1,0-.48.77l-1.5.76s-1,.37-.19.47.09.19.85.09a4.46,4.46,0,0,1,1.88-.09c.38.19.75.09.85.38s.29.2.71.62,1.36.13.7,1.16a21,21,0,0,1-2.82,3.2c-.38.29-.85.1-1.89.57A2.48,2.48,0,0,1,142.74,92.29Z"/><path class="cls-2" d="M153.32,118.13l2.23,2.59c.94,1,2.07,1.42,2.92,2.45s1.43,1.23,2,2.45.83.94,1.68,2.35a37.48,37.48,0,0,1,1.6,3.49,21.52,21.52,0,0,1,1.41,3.86c.29,1,.66,2.82.85,3.39s-.19,2.16,0,3,.86,1.41.05,1.13-.9.28-2.12-2.45-1.51-3.76-1.6-4.89-.19-1.89-.19-1.89.75.19-.28-1.41-1.13-2.73-2-3.48a12,12,0,0,0-1.69-1.42c-.38-.18-.29,0-1-1.12s-.28-1.23-1.32-2.45-2.51-2.83-2.51-2.83,0,.17-.68-.9-1.42-3.62-1.14-3.43S153.32,118.13,153.32,118.13Z"/><path class="cls-2" d="M129.61,146.8h-2.82s.84.15,0,.85-1.42,1-1.13,1.56,1.94,1.41,1.94,1.41l.47,2.12c1.33-.16,1.54,0,1.54,0l.54-3.78Z"/><path class="cls-2" d="M48.41,155.14s1.45,2.26,1.78,2.68S56.45,166,56.88,166s1.69,2,2.12,3.39.42,3,1.13,3.67,1,.57,1.69,1.84S63,177,63,177s-1.41-.43,0,.7,1,0,1.84,1.84,1.41,1.55,2,3.25.57,2.54,1.7,3.53S71,187.9,71.15,189l.13,1.13L68,188.76s1.14,1.54-1.54-1.71-3-2.82-4.09-5.36-3.11-8.62-3.54-9A24.39,24.39,0,0,0,55.58,168c-2.1-2.13-2.07-2.68-3.57-5.51s-3.15-4.52-2.92-5.22S48.41,155.14,48.41,155.14Z"/><path class="cls-2" d="M5.61,144.12v1.41c0,2.12-.56,2.12,0,3.11a8.74,8.74,0,0,1,.85,2.26c.28.85.57,2.26,1.13,1.84a1,1,0,0,1,1.13,0s.42.7,0,.84-1.34-.14-1.59,0-.25.23-1,0,.2-.06-.82-.88a2.29,2.29,0,0,1-1.09-2.25c-.06-1.12-.5-2.27,0-2.7s.35-1.69.49-2.12A14.29,14.29,0,0,1,5.61,144.12Z"/><path class="cls-2" d="M37,105.42s.11.32-.52.18l-1.84-.42s-.5-.36-.21.63.46.81.28,1a1.82,1.82,0,0,1-1.55,0c-.29-.28-.67-.75-.67-.75s-.71-.21-.39.93.31,1.52.74,2a2.92,2.92,0,0,0,1.23.81c.11,0,1.59.24,1.88-1a8.39,8.39,0,0,1,1.06-2.4l.26-.68Z"/><path class="cls-2" d="M86.52,93.14a21.61,21.61,0,0,0,.49-3c0-1.13-.5-1.59-.49-3a9.72,9.72,0,0,0-.36-2.66,16.58,16.58,0,0,0-3.3,0,24.12,24.12,0,0,1-6-.55c-1.13-.19-.76.28-2.36-.56a14.74,14.74,0,0,1-3.57-2.08c-1.32-1.13-1.89-2.07-3-3s-2.73-2.16-3.1-2.45-2.26-2.26-2.26-2.26A21.28,21.28,0,0,1,61,71.2a9.33,9.33,0,0,1-.66-1.69,2.52,2.52,0,0,0-.85,1.12l-.28.76s-.47.47-.94-.38a23.67,23.67,0,0,0-1.7-2.63,14.83,14.83,0,0,0-1.69-2.26c-1.32-1.51-2.07-2.36-2.45-2.73s.28-.1-1.6-1.7-2.54-3.58-1.88-1.6.75,2.45,1,3.11a3.14,3.14,0,0,1,.48,1.31c.09.76,1.22-1.41.09,1.23s-1.7,3.39-1.88,4.05a3.66,3.66,0,0,1-.38,1.13,6.79,6.79,0,0,0-.57,2.54,7.64,7.64,0,0,1-.75,3,13.41,13.41,0,0,0-.91,1.94A6.25,6.25,0,0,0,45.39,81c-.19,1.6-.38,2.42-.47,3.47s1.13-.64,0,1.8A25.19,25.19,0,0,0,43,91c-.57,2-.66,2.57-.76,2.94a5.73,5.73,0,0,0-.37,1.7,8.84,8.84,0,0,0,0,3.33,20.53,20.53,0,0,0,1.32,4.3c1,2.61,2,6.07,2,6.07l.87.49a9.94,9.94,0,0,1,.53-2.38,34.33,34.33,0,0,0,1.32-3.71c1-3.3,1-3.22,1.42-4.77a49.09,49.09,0,0,1,1.41-5.31,55,55,0,0,1,2.16-5.55s.57-1.23.76,1.79-1,2.6,0,4.59,1.41,2.37,1.69,3-1.22.76.28.66a13.83,13.83,0,0,0,3.3-.75c1,.19.66-.47,2.07.75s2.07,1.6,2.92,2.45a3.78,3.78,0,0,1,1.22,2c.38,1.06-.09.4.85,1.62s.75,1.63,1.51,1.41,2.44-.44,2.16-2.44a14.22,14.22,0,0,1,.09-4.3c.13-1.44-.19-2.38,0-3.33s.17-3.2.56-3-1.5-.38.39.18a8.9,8.9,0,0,1,3.76,1.68c2.07,1.35,2.8,2,3.57,2.37s1,1,2.21.21a28.55,28.55,0,0,1,2.89-1.7c1.6-.86,1.7-.23,2.07-.88"/><path class="cls-2" d="M52.36,35.66c-.77,2.11-3.25,3.53-2.69,4.8s-.56.14.57,1.27,0,.71,1.13,1.13l1.13.42s.56-1.13.56,1.42,1.13,1.55,0,3.39-2.26,4.94-.7,1.27a27.09,27.09,0,0,1,2.54-5.23c.42-.56,1.13-1.55,1.84-1.69s3.67-2,4.09-2-.14-1.6.85-1.51,2.54-1.34,4.38-1.47,5.79-1.54,7.06-1.82,2.54-.14,2.68-2-.42-2.82,0-3.95a37.71,37.71,0,0,0,1-4,4.64,4.64,0,0,1,1.56-3c1.55-1.7,3.48-2.69,3.79-3.39a10.16,10.16,0,0,1,3-3,16.85,16.85,0,0,0,2.81-2.82s-.08-2.54-2.6-1.18-2.47,1-4.44,2.73-1.84,0-4.52,3.11-2.69,2-3.53,4.37-.43,2-1,3.53.7.15-.57,1.56.57,0-1.27,1.41-.28.71-1.83,1.41a7.37,7.37,0,0,1-2.69,1c-1.52.29-.22.21-1.95.46s-1.15-.54-2.57,0S58,34.24,57,34.81s-4.66,2-4.66,2Z"/><path class="cls-2" d="M60.05,74.33l6.21-2.52s4.33,2.52,5.27,2.52H83.84s2.74-.6.88-1.26c-2.28-.81-1.57-2.44-1.57-3.77a2.2,2.2,0,0,0,1.19,1.83,10,10,0,0,0,2.67.68,1.59,1.59,0,0,0,2.11,0c1.25-.87,2.75-2.08,2.75-2.08s.38-2,1.13-1.5,1.14,1.43,1.7,1.5,3.39.71,3.39.71h1.13a2.93,2.93,0,0,0,1.88-.71c.56-.67,1.5-2.28,3.2-1.57s1.86,1.5,3.19,1.57,4.91,0,4.91,0,1.31-.23,1.31-2.43-.18-5.62,0-4.29a3.94,3.94,0,0,0,1.51,2.28L117.48,63s1.32-2.62,3.77.77,3.2,3.09,3.39,4.47,2.26-.56,0,2.19-3.58,2.92-5.28,5.1.38-.46-1.69,2.18l-2.07,2.63s0,.19-1.13,0-4.14-2.63-4.14-2.63a2.07,2.07,0,0,0-2.08,1.08c-.94,1.37-.18-.33-.94,1.37s.19,1.39-1.32,3l-1.5,1.65s-1.7.37-.94.75,3.94-1.16,3.94-1.16,1.52-1.39,2.27-1.24,3.58-2.41,1.88,0-3.76,2-5.27,3.9-.75.58-1.51,1.9-.75.18-.75,1.31-1.51.57,0,1.13a28.38,28.38,0,0,1,3.38,1.21c3.59,1.43,5.66,1,6.79,1.86s1.32.14,2.45,2,.35,1.15-.57,2.63-4.33,2.22-4.33,2.22-.18-.25-1.69-.33a47.13,47.13,0,0,1-5.29-.1c-5.51-.29-7.35-2.35-9-1.6s-5.3.19-5.3.19,2.26.85-4-.8-9.41-2.47-10.73-3.35-6.6-4.22-7-4.37-8.34-5.68-8.71-6.58S60.05,74.33,60.05,74.33Z"/></g></g></svg>
